#!OML:ASF H:\Dans Jumps\Project 1\Capture day 1\Session 1\subject.ASF
:FULLY-SPECIFIED
:DEGREES
610
root -0.194605 17.6797 10.583 7.07884 -1.45378 -1.52559
lowerback -1.37027 0.202368 0.11081
upperback 1.34569 0.244203 1.17191
thorax 2.14263 0.113944 1.1473
lowerneck -14.8147 -0.117776 -2.25981
upperneck 11.4432 0.0996966 1.49436
head 5.88656 0.0664045 0.850294
rclavicle -3.2551e-015 -1.78906e-015
rhumerus -23.5746 -23.0746 -80.3619
rradius 20.0601
rwrist 41.1293
rhand -20.4098 -27.2696
rfingers 7.12502
rthumb 5.94415 -57.1662
lclavicle -3.2551e-015 -1.78906e-015
lhumerus -24.8619 5.72755 85.7685
lradius 15.3381
lwrist -0.807834
lhand -24.8879 -6.08444
lfingers 7.12502
lthumb 1.61982 23.8892
rfemur -13.119 -1.70688 21.044
rtibia 21.4763
rfoot -14.1969 -2.78766
rtoes 5.54284
lfemur -13.7663 7.76524 -17.7121
ltibia 19.3653
lfoot -10.219 4.99154
ltoes -10.3085
611
root -0.194151 17.6804 10.5814 7.07101 -1.47333 -1.5295
lowerback -1.38293 0.201386 0.125882
upperback 1.33967 0.242555 1.16895
thorax 2.14367 0.11339 1.1358
lowerneck -14.7603 -0.11612 -2.24504
upperneck 11.3845 0.0996402 1.4826
head 5.8589 0.0661338 0.843815
rclavicle -6.03808e-015 -1.17283e-014
rhumerus -23.5804 -23.0495 -80.3688
rradius 20.0685
rwrist 41.0649
rhand -20.3867 -27.2609
rfingers 7.12502
rthumb 5.96648 -57.1569
lclavicle -6.03808e-015 -1.17283e-014
lhumerus -24.8787 5.69744 85.829
lradius 15.3935
lwrist -0.730362
lhand -24.8924 -6.10848
lfingers 7.12502
lthumb 1.61547 23.8651
rfemur -13.1014 -1.70513 21.0452
rtibia 21.4427
rfoot -14.1795 -2.76528
rtoes 5.56236
lfemur -13.7444 7.78153 -17.708
ltibia 19.3332
lfoot -10.2073 4.98431
ltoes -10.2706
612
root -0.193741 17.6811 10.5798 7.06268 -1.49048 -1.53064
lowerback -1.39496 0.199005 0.136619
upperback 1.33294 0.239141 1.16667
thorax 2.14363 0.111885 1.12736
lowerneck -14.7013 -0.1038 -2.20665
upperneck 11.3221 0.111956 1.45007
head 5.82912 0.0712791 0.828034
rclavicle 8.52289e-015 -1.19271e-015
rhumerus -23.5886 -23.0075 -80.3762
rradius 20.0854
rwrist 40.9889
rhand -20.3877 -27.2482
rfingers 7.12502
rthumb 5.96549 -57.1442
lclavicle 8.52289e-015 -1.19271e-015
lhumerus -24.8972 5.64896 85.8966
lradius 15.4485
lwrist -0.639379
lhand -24.9248 -6.15982
lfingers 7.12502
lthumb 1.58419 23.814
rfemur -13.0846 -1.70104 21.0436
rtibia 21.4113
rfoot -14.1633 -2.74791
rtoes 5.58309
lfemur -13.7223 7.80095 -17.7068
ltibia 19.2995
lfoot -10.1959 4.97014
ltoes -10.236
613
root -0.193346 17.6818 10.5781 7.05395 -1.50552 -1.53015
lowerback -1.40835 0.196223 0.144999
upperback 1.32583 0.235228 1.16501
thorax 2.14397 0.11009 1.12086
lowerneck -14.6586 -0.0833783 -2.15401
upperneck 11.2741 0.134397 1.40456
head 5.80645 0.0809564 0.80684
rclavicle -3.13086e-015 -1.05356e-014
rhumerus -23.596 -22.9585 -80.3817
rradius 20.1046
rwrist 40.9142
rhand -20.4198 -27.2195
rfingers 7.12502
rthumb 5.93451 -57.1164
lclavicle -3.13086e-015 -1.05356e-014
lhumerus -24.9137 5.59109 85.9671
lradius 15.4957
lwrist -0.549365
lhand -24.9771 -6.25004
lfingers 7.12502
lthumb 1.53373 23.7242
rfemur -13.0678 -1.69483 21.0403
rtibia 21.3817
rfoot -14.1477 -2.73481
rtoes 5.60327
lfemur -13.7007 7.82272 -17.7073
ltibia 19.266
lfoot -10.1875 4.95081
ltoes -10.1999
614
root -0.192997 17.6824 10.5763 7.04621 -1.52027 -1.52685
lowerback -1.42334 0.194842 0.150134
upperback 1.31779 0.233266 1.16284
thorax 2.1442 0.109224 1.11572
lowerneck -14.6429 -0.0641951 -2.10692
upperneck 11.2486 0.156474 1.36132
head 5.79546 0.0903999 0.787375
rclavicle 7.45443e-016 -1.98785e-016
rhumerus -23.6047 -22.9027 -80.3849
rradius 20.1284
rwrist 40.843
rhand -20.4657 -27.1868
rfingers 7.12502
rthumb 5.89021 -57.0849
lclavicle 7.45443e-016 -1.98785e-016
lhumerus -24.9251 5.50301 86.0473
lradius 15.5404
lwrist -0.430348
lhand -24.9825 -6.25289
lfingers 7.12502
lthumb 1.52851 23.7214
rfemur -13.0546 -1.68515 21.034
rtibia 21.3566
rfoot -14.1353 -2.72568
rtoes 5.63198
lfemur -13.6794 7.84552 -17.7107
ltibia 19.2309
lfoot -10.1792 4.92774
ltoes -10.1536
615
root -0.192592 17.6829 10.5746 7.03807 -1.53357 -1.52542
lowerback -1.43934 0.194125 0.157929
upperback 1.30904 0.232109 1.16146
thorax 2.14427 0.108797 1.10995
lowerneck -14.6519 -0.0453332 -2.07435
upperneck 11.2446 0.179607 1.3316
head 5.79533 0.100778 0.774785
rclavicle -4.42296e-015 7.95139e-016
rhumerus -23.6143 -22.8505 -80.3834
rradius 20.155
rwrist 40.793
rhand -20.5037 -27.1615
rfingers 7.12502
rthumb 5.85357 -57.0607
lclavicle -4.42296e-015 7.95139e-016
lhumerus -24.9377 5.41608 86.1274
lradius 15.58
lwrist -0.319206
lhand -24.9745 -6.22907
lfingers 7.12502
lthumb 1.53623 23.7451
rfemur -13.042 -1.67604 21.0298
rtibia 21.335
rfoot -14.1249 -2.72034
rtoes 5.64454
lfemur -13.6568 7.86829 -17.7122
ltibia 19.1955
lfoot -10.1715 4.9044
ltoes -10.1092
616
root -0.192065 17.6835 10.573 7.03072 -1.54523 -1.51553
lowerback -1.4557 0.193823 0.15897
upperback 1.29887 0.231739 1.15713
thorax 2.14305 0.108689 1.10494
lowerneck -14.6697 -0.0350837 -2.06256
upperneck 11.2484 0.193153 1.31888
head 5.79928 0.106915 0.77013
rclavicle 4.07509e-015 -3.97569e-016
rhumerus -23.6228 -22.7997 -80.3805
rradius 20.1795
rwrist 40.7503
rhand -20.5394 -27.1541
rfingers 7.12502
rthumb 5.81906 -57.0542
lclavicle 4.07509e-015 -3.97569e-016
lhumerus -24.9524 5.32631 86.2086
lradius 15.6286
lwrist -0.20589
lhand -24.9427 -6.11209
lfingers 7.12502
lthumb 1.56691 23.8619
rfemur -13.0325 -1.67243 21.0157
rtibia 21.3181
rfoot -14.1168 -2.71215
rtoes 5.65829
lfemur -13.634 7.89117 -17.7245
ltibia 19.1582
lfoot -10.1622 4.88035
ltoes -10.0742
617
root -0.191443 17.684 10.5713 7.02273 -1.55499 -1.50651
lowerback -1.47046 0.193192 0.161468
upperback 1.28773 0.230905 1.15361
thorax 2.13994 0.10837 1.09992
lowerneck -14.6707 -0.0322994 -2.06566
upperneck 11.2456 0.197891 1.31677
head 5.79847 0.108928 0.770388
rclavicle -9.93923e-017 -4.37326e-015
rhumerus -23.6295 -22.7535 -80.374
rradius 20.2002
rwrist 40.7217
rhand -20.5535 -27.1707
rfingers 7.12502
rthumb 5.80548 -57.0712
lclavicle -9.93923e-017 -4.37326e-015
lhumerus -24.9708 5.24915 86.2867
lradius 15.6806
lwrist -0.104632
lhand -24.9077 -5.97665
lfingers 7.12502
lthumb 1.6007 23.9971
rfemur -13.0227 -1.67086 21.0023
rtibia 21.3034
rfoot -14.1097 -2.70466
rtoes 5.6677
lfemur -13.6098 7.91271 -17.7362
ltibia 19.1209
lfoot -10.1549 4.85598
ltoes -10.0359
618
root -0.190823 17.6845 10.5696 7.01232 -1.56096 -1.49177
lowerback -1.48032 0.190765 0.157667
upperback 1.27655 0.227893 1.1489
thorax 2.13405 0.106884 1.09712
lowerneck -14.6586 -0.0329742 -2.08741
upperneck 11.2378 0.198452 1.33658
head 5.79393 0.109796 0.780193
rclavicle -2.60905e-015 -1.39149e-015
rhumerus -23.6322 -22.7237 -80.3623
rradius 20.2134
rwrist 40.7216
rhand -20.54 -27.2033
rfingers 7.12502
rthumb 5.81847 -57.1034
lclavicle -2.60905e-015 -1.39149e-015
lhumerus -24.9896 5.18719 86.357
lradius 15.7256
lwrist -0.0318218
lhand -24.8891 -5.90594
lfingers 7.12502
lthumb 1.61872 24.0677
rfemur -13.0111 -1.67042 20.9829
rtibia 21.29
rfoot -14.1033 -2.70047
rtoes 5.66797
lfemur -13.5835 7.9314 -17.7541
ltibia 19.0827
lfoot -10.1468 4.83055
ltoes -9.99665
619
root -0.190235 17.685 10.5678 7.00128 -1.56535 -1.48323
lowerback -1.48875 0.187672 0.159304
upperback 1.26598 0.223823 1.14628
thorax 2.12803 0.104934 1.09338
lowerneck -14.646 -0.0319221 -2.10337
upperneck 11.2285 0.200656 1.35274
head 5.7888 0.111433 0.788041
rclavicle 2.98177e-016 -7.95139e-016
rhumerus -23.6283 -22.7079 -80.3467
rradius 20.2175
rwrist 40.743
rhand -20.5241 -27.2314
rfingers 7.12502
rthumb 5.83378 -57.1311
lclavicle 2.98177e-016 -7.95139e-016
lhumerus -25.0048 5.13756 86.4203
lradius 15.7628
lwrist 0.0218949
lhand -24.8932 -5.91429
lfingers 7.12502
lthumb 1.61468 24.0593
rfemur -12.9975 -1.66478 20.9707
rtibia 21.2743
rfoot -14.0933 -2.70058
rtoes 5.67367
lfemur -13.5583 7.94914 -17.7649
ltibia 19.0466
lfoot -10.1387 4.80611
ltoes -9.96322
620
root -0.189699 17.6855 10.5658 6.98888 -1.56845 -1.47602
lowerback -1.49554 0.184377 0.161805
upperback 1.25705 0.219457 1.14373
thorax 2.12277 0.102843 1.08921
lowerneck -14.6388 -0.0293372 -2.12404
upperneck 11.2219 0.204643 1.37838
head 5.78539 0.114479 0.799845
rclavicle -2.75814e-015 1.33186e-014
rhumerus -23.6185 -22.7138 -80.3265
rradius 20.2133
rwrist 40.7894
rhand -20.5037 -27.2534
rfingers 7.12502
rthumb 5.85353 -57.1526
lclavicle -2.75814e-015 1.33186e-014
lhumerus -25.0099 5.07591 86.4824
lradius 15.783
lwrist 0.0729976
lhand -24.926 -6.02476
lfingers 7.12502
lthumb 1.58301 23.9491
rfemur -12.9815 -1.65417 20.9601
rtibia 21.2561
rfoot -14.0813 -2.70632
rtoes 5.67732
lfemur -13.5336 7.96256 -17.773
ltibia 19.0121
lfoot -10.1296 4.78227
ltoes -9.91187
621
root -0.189085 17.6859 10.5638 6.97437 -1.56885 -1.4732
lowerback -1.50326 0.180934 0.170611
upperback 1.25054 0.214696 1.14146
thorax 2.12055 0.100635 1.08179
lowerneck -14.6414 -0.0214594 -2.14024
upperneck 11.2216 0.214482 1.40776
head 5.78549 0.120863 0.812692
rclavicle -1.46604e-015 -4.17448e-015
rhumerus -23.6026 -22.7397 -80.3028
rradius 20.201
rwrist 40.8522
rhand -20.4847 -27.265
rfingers 7.12502
rthumb 5.87187 -57.1636
lclavicle -1.46604e-015 -4.17448e-015
lhumerus -25.006 5.00513 86.5422
lradius 15.7919
lwrist 0.126074
lhand -24.9665 -6.19298
lfingers 7.12502
lthumb 1.54394 23.7812
rfemur -12.9604 -1.64627 20.9541
rtibia 21.2336
rfoot -14.0669 -2.71119
rtoes 5.67726
lfemur -13.5089 7.97486 -17.776
ltibia 18.9816
lfoot -10.1231 4.75887
ltoes -9.85634
622
root -0.188461 17.6863 10.5617 6.95892 -1.56895 -1.47168
lowerback -1.51117 0.178826 0.180935
upperback 1.24526 0.211669 1.13892
thorax 2.11968 0.0993118 1.07332
lowerneck -14.6338 -0.0169861 -2.16202
upperneck 11.2167 0.219446 1.44583
head 5.7825 0.1253 0.828708
rclavicle -4.82053e-015 -3.77691e-015
rhumerus -23.5814 -22.7742 -80.278
rradius 20.1839
rwrist 40.9133
rhand -20.477 -27.2593
rfingers 7.12502
rthumb 5.87926 -57.1577
lclavicle -4.82053e-015 -3.77691e-015
lhumerus -24.9926 4.91298 86.6053
lradius 15.8046
lwrist 0.213739
lhand -24.9846 -6.30214
lfingers 7.12502
lthumb 1.52648 23.6721
rfemur -12.9379 -1.63802 20.9494
rtibia 21.2089
rfoot -14.052 -2.71545
rtoes 5.6881
lfemur -13.4845 7.98474 -17.7772
ltibia 18.953
lfoot -10.1164 4.73769
ltoes -9.79804
623
root -0.187689 17.6867 10.5596 6.94343 -1.56762 -1.47206
lowerback -1.52088 0.17768 0.195389
upperback 1.24079 0.209801 1.13612
thorax 2.12064 0.0986251 1.06229
lowerneck -14.6202 -0.0134714 -2.18797
upperneck 11.2111 0.222714 1.49191
head 5.77828 0.12934 0.847767
rclavicle 1.14301e-015 -1.25234e-014
rhumerus -23.5583 -22.8196 -80.2511
rradius 20.1659
rwrist 40.9762
rhand -20.47 -27.24
rfingers 7.12502
rthumb 5.88611 -57.1382
lclavicle 1.14301e-015 -1.25234e-014
lhumerus -24.9789 4.81724 86.6677
lradius 15.8214
lwrist 0.30636
lhand -24.9964 -6.36944
lfingers 7.12502
lthumb 1.51504 23.6049
rfemur -12.915 -1.63492 20.9461
rtibia 21.1837
rfoot -14.0374 -2.71588
rtoes 5.69891
lfemur -13.4609 7.99395 -17.7767
ltibia 18.9262
lfoot -10.1118 4.71584
ltoes -9.72805
